<svg width="38" height="38" fill="none" xmlns="http://www.w3.org/2000/svg"><path d="M18.997 37.971c10.486 0 18.986-8.5 18.986-18.985C37.983 8.5 29.483 0 18.998 0 8.511 0 .011 8.5.011 18.985c0 10.486 8.5 18.986 18.985 18.986z" fill="url(#paint0_linear)"/><path d="M37.86 21.124L24.126 7.39l-7.13 7.13.425.425-4.06 4.06 3.323 3.323-.437.436 3.597 3.598-4.147 4.147 7.085 7.085c7.989-1.617 14.156-8.25 15.078-16.47z" fill="url(#paint1_linear)"/><path d="M15.678 11.933v3.184h-2.333v3.893h2.333v11.57h4.792V19.01h3.215s.301-1.867.447-3.908h-3.644V12.44c0-.398.522-.933 1.039-.933h2.61V7.454h-3.55c-5.028 0-4.91 3.897-4.91 4.479z" fill="#fff"/><defs><linearGradient id="paint0_linear" x1="4.5" y1="1.5" x2="35.5" y2="33.5" gradientUnits="userSpaceOnUse"><stop stop-color="#4CA9F6"/><stop offset="1" stop-color="#2666D5"/></linearGradient><linearGradient id="paint1_linear" x1="18.5" y1="13" x2="30.5" y2="26" gradientUnits="userSpaceOnUse"><stop stop-color="#2E4D72" stop-opacity=".51"/><stop offset="1" stop-color="#2E4D72" stop-opacity="0"/></linearGradient></defs></svg>