<svg width="38" height="38" fill="none" xmlns="http://www.w3.org/2000/svg"><mask id="mask0" maskUnits="userSpaceOnUse" x="0" y="0" width="38" height="38"><circle cx="19" cy="19" r="19" fill="#C4C4C4"/></mask><g mask="url(#mask0)"><path d="M37.35 6.797A6.919 6.919 0 0031.202.65a114.774 114.774 0 00-24.406 0A6.92 6.92 0 00.651 6.797a114.774 114.774 0 000 24.406 6.92 6.92 0 006.146 6.146c8.127.868 16.279.868 24.406 0a6.919 6.919 0 006.146-6.146c.868-8.127.868-16.279 0-24.406z" fill="url(#paint0_radial)"/><path d="M35.283 8.171a6.14 6.14 0 00-5.454-5.454c-7.212-.77-14.446-.77-21.658 0a6.14 6.14 0 00-5.454 5.454 101.81 101.81 0 000 21.657 6.14 6.14 0 005.454 5.455c7.212.77 14.446.77 21.657 0a6.14 6.14 0 005.455-5.455c.77-7.211.77-14.445 0-21.657z" fill="url(#paint1_linear)"/><path d="M.57 30.416c.025.262.052.525.08.787a6.92 6.92 0 006.147 6.147 114.83 114.83 0 0024.406 0 6.92 6.92 0 006.146-6.147c.029-.262.055-.525.082-.787H.569z" fill="url(#paint2_linear)"/><path d="M37.35 31.203c.465-4.367.68-8.741.646-13.115L29.31 9.402c-1.085-1.238-2.67-2.012-4.533-2.079-3.83-.138-7.672-.13-11.503.001-3.181.11-5.406 2.248-5.977 5.391-.1.555-.16 1.117-.24 1.676v9.214c.044.299.109.596.129.896.127 1.912.913 3.55 2.17 4.657l8.84 8.839c4.337.03 8.675-.185 13.007-.648a6.919 6.919 0 006.146-6.146z" fill="url(#paint3_linear)"/><path d="M37.35 31.203a6.92 6.92 0 01-6.147 6.146c-4.33.462-8.67.678-13.007.648L9.37 29.17c1.024.896 2.357 1.441 3.905 1.5 3.83.143 7.673.14 11.502.002 3.464-.126 5.971-2.69 6.08-6.153.114-3.678.114-7.366 0-11.044-.05-1.598-.611-3.004-1.541-4.068l8.68 8.68c.034 4.373-.18 8.748-.647 13.115z" fill="url(#paint4_linear)"/><path d="M23.484 14.885a6.087 6.087 0 10-8.599 8.599l14.082 14.082c.746-.065 1.491-.137 2.236-.217a6.92 6.92 0 006.146-6.146c.08-.745.152-1.49.217-2.236L23.484 14.885z" fill="url(#paint5_linear)"/><path d="M37.926 23.093L26.593 11.76a1.448 1.448 0 10-2.027 2.027l13.158 13.158c.09-1.284.157-2.567.202-3.852z" fill="url(#paint6_linear)"/><path d="M7.057 14.391c.08-.559.14-1.121.24-1.676.57-3.143 2.796-5.281 5.977-5.39 3.831-.133 7.673-.14 11.503-.002 3.463.125 5.97 2.69 6.08 6.153.114 3.678.114 7.365 0 11.044-.11 3.464-2.616 6.027-6.08 6.152-3.83.139-7.673.142-11.502-.002-3.464-.13-5.858-2.7-6.09-6.169-.02-.3-.084-.597-.128-.896V14.39zM19.003 28.62c1.753 0 3.508.053 5.258-.012 2.745-.102 4.433-1.74 4.497-4.482.08-3.416.08-6.838 0-10.255-.064-2.741-1.753-4.417-4.497-4.476a248.173 248.173 0 00-10.45 0c-2.723.057-4.416 1.7-4.49 4.411-.094 3.46-.094 6.926 0 10.386.074 2.71 1.767 4.315 4.49 4.416 1.729.065 3.461.012 5.192.012z" fill="url(#paint7_linear)"/><path d="M7.057 14.391c.08-.559.14-1.121.24-1.676.57-3.143 2.796-5.281 5.977-5.39 3.831-.133 7.673-.14 11.503-.002 3.463.125 5.97 2.69 6.08 6.153.114 3.678.114 7.365 0 11.044-.11 3.464-2.616 6.027-6.08 6.152-3.83.139-7.673.142-11.502-.002-3.464-.13-5.858-2.7-6.09-6.169-.02-.3-.084-.597-.128-.896V14.39zM19.003 28.62c1.753 0 3.508.053 5.258-.012 2.745-.102 4.433-1.74 4.497-4.482.08-3.416.08-6.838 0-10.255-.064-2.741-1.753-4.417-4.497-4.476a248.173 248.173 0 00-10.45 0c-2.723.057-4.416 1.7-4.49 4.411-.094 3.46-.094 6.926 0 10.386.074 2.71 1.767 4.315 4.49 4.416 1.729.065 3.461.012 5.192.012z" fill="#fff"/><path d="M19 12.914a6.086 6.086 0 100 12.173 6.086 6.086 0 000-12.173zm0 10.077a3.991 3.991 0 110-7.982 3.991 3.991 0 010 7.982zm7.89-10.355a1.448 1.448 0 11-2.896 0 1.448 1.448 0 012.896 0z" fill="#fff"/></g><defs><linearGradient id="paint1_linear" x1="14.575" y1="16.511" x2="-49.802" y2="-19.701" gradientUnits="userSpaceOnUse"><stop stop-color="#A1B5D8" stop-opacity="0"/><stop offset=".309" stop-color="#90A2BD" stop-opacity=".31"/><stop offset=".755" stop-color="#7C8B9C" stop-opacity=".757"/><stop offset="1" stop-color="#748290"/></linearGradient><linearGradient id="paint2_linear" x1="19" y1="33.545" x2="19" y2="39.468" gradientUnits="userSpaceOnUse"><stop stop-color="#FAE100" stop-opacity="0"/><stop offset=".307" stop-color="#FCA800" stop-opacity=".306"/><stop offset=".627" stop-color="#FE7300" stop-opacity=".627"/><stop offset=".869" stop-color="#FF5200" stop-opacity=".867"/><stop offset="1" stop-color="#FF4500"/></linearGradient><linearGradient id="paint3_linear" x1="16.838" y1="16.784" x2="7.434" y2="7.38" gradientUnits="userSpaceOnUse"><stop stop-color="#833AB4" stop-opacity="0"/><stop offset="1" stop-color="#833AB4"/></linearGradient><linearGradient id="paint4_linear" x1="26.043" y1="34.755" x2="21.349" y2="12.627" gradientUnits="userSpaceOnUse"><stop stop-color="#833AB4" stop-opacity="0"/><stop offset="1" stop-color="#833AB4"/></linearGradient><linearGradient id="paint5_linear" x1="27.829" y1="27.829" x2="8.976" y2="8.976" gradientUnits="userSpaceOnUse"><stop stop-color="#833AB4" stop-opacity="0"/><stop offset="1" stop-color="#833AB4"/></linearGradient><linearGradient id="paint6_linear" x1="29.228" y1="16.422" x2="22.994" y2="10.188" gradientUnits="userSpaceOnUse"><stop stop-color="#833AB4" stop-opacity="0"/><stop offset="1" stop-color="#833AB4"/></linearGradient><linearGradient id="paint7_linear" x1="26.545" y1="11.508" x2="11.173" y2="26.879" gradientUnits="userSpaceOnUse"><stop stop-color="#833AB4"/><stop offset=".092" stop-color="#9C3495"/><stop offset=".293" stop-color="#DC2546"/><stop offset=".392" stop-color="#FD1D1D"/><stop offset=".559" stop-color="#FC6831"/><stop offset=".689" stop-color="#FC9B40"/><stop offset=".752" stop-color="#FCAF45"/><stop offset=".781" stop-color="#FDB750"/><stop offset=".866" stop-color="#FECB6A"/><stop offset=".942" stop-color="#FFD87A"/><stop offset="1" stop-color="#FFDC80"/></linearGradient><radialGradient id="paint0_radial" cx="0" cy="0" r="1" gradientUnits="userSpaceOnUse" gradientTransform="translate(7.79 33.209) scale(41.9073)"><stop stop-color="#FAE100"/><stop offset=".054" stop-color="#FADC04"/><stop offset=".117" stop-color="#FBCE0E"/><stop offset=".183" stop-color="#FCB720"/><stop offset=".251" stop-color="#FE9838"/><stop offset=".305" stop-color="#FF7950"/><stop offset=".492" stop-color="#FF1C74"/><stop offset="1" stop-color="#6C1CD1"/></radialGradient></defs></svg>