<svg width="38" height="38" fill="none" xmlns="http://www.w3.org/2000/svg"><mask id="mask0" maskUnits="userSpaceOnUse" x="0" y="0" width="38" height="38"><circle cx="19" cy="19" r="19" fill="#C4C4C4"/></mask><g mask="url(#mask0)"><path d="M31.203 37.35a114.83 114.83 0 01-24.406 0A6.92 6.92 0 01.65 31.202a114.774 114.774 0 010-24.406A6.92 6.92 0 016.797.65a114.774 114.774 0 0124.406 0 6.92 6.92 0 016.146 6.146c.868 8.127.868 16.279 0 24.406a6.919 6.919 0 01-6.146 6.146z" fill="url(#paint0_linear)"/><path d="M34.657 29.662l-20.67-20.67a2.525 2.525 0 10-3.539 3.539l20.599 20.597a5.837 5.837 0 003.61-3.466z" fill="url(#paint1_linear)"/><path d="M14.102 14.706H9.861v13.149L21 38.5c4.648.176 5.358-2.004 10-2.5.812-.087.393-2.944 1.07-3.327L14.102 14.706z" fill="url(#paint2_linear)"/><path d="M28.507 15.807a4.23 4.23 0 00-3.134-1.384c-1.965 0-3.232.69-3.986 1.33l-.832-1.047h-3.908v13.149L28 38.5c2.38-.078 2.622-2.246 5-2.5 2.732-.291 3.209-3.768 3.5-6.5.195-1.826 1.91-2.172 2-4l-9.993-9.693z" fill="url(#paint3_linear)"/><path d="M9.86 14.706h4.242v13.149H9.861V14.706zm15.513-.283c-3.109 0-4.474 1.727-4.818 2.253v-1.97h-3.908v13.149h4.242V21.25c0-1.909.878-3.393 2.545-3.393 1.666 0 1.939 1.848 1.939 4.12v5.878h4.241v-9.19a4.242 4.242 0 00-4.241-4.242zm-10.867-3.898a2.525 2.525 0 11-5.049 0 2.525 2.525 0 015.05 0z" fill="#fff"/></g><defs><linearGradient id="paint0_linear" x1="7.5" y1="3.5" x2="32" y2="33" gradientUnits="userSpaceOnUse"><stop stop-color="#0583C5"/><stop offset="1" stop-color="#0066B2"/></linearGradient><linearGradient id="paint1_linear" x1="20.496" y1="19.039" x2="8.52" y2="7.063" gradientUnits="userSpaceOnUse"><stop stop-color="#0066B2" stop-opacity="0"/><stop offset="1" stop-color="#07485E"/></linearGradient><linearGradient id="paint2_linear" x1="27.527" y1="30.166" x2="3.41" y2="18.861" gradientUnits="userSpaceOnUse"><stop stop-color="#0066B2" stop-opacity="0"/><stop offset="1" stop-color="#07485E"/></linearGradient><linearGradient id="paint3_linear" x1="33.394" y1="32.645" x2="16.593" y2="15.844" gradientUnits="userSpaceOnUse"><stop stop-color="#0066B2" stop-opacity="0"/><stop offset="1" stop-color="#07485E"/></linearGradient></defs></svg>