<svg width="286" height="36" fill="none" xmlns="http://www.w3.org/2000/svg"><path d="M64.625 7.665h3.832v17.094H79.25v3.189H64.625V7.665zm21.229 19.224a10.068 10.068 0 01-3.98-3.744 10.612 10.612 0 01-1.447-5.346c0-1.875.498-3.718 1.447-5.345a10.042 10.042 0 013.98-3.737 12.65 12.65 0 015.69-1.35c1.978 0 3.928.463 5.689 1.35a10.112 10.112 0 013.98 3.722 10.662 10.662 0 011.448 5.36c0 1.88-.499 3.728-1.448 5.36a10.138 10.138 0 01-3.98 3.722 12.681 12.681 0 01-5.69 1.346c-1.978 0-3.928-.461-5.689-1.346v.008zm9.404-2.87a6.652 6.652 0 002.584-2.54 7.621 7.621 0 00.942-3.665c0-1.28-.324-2.54-.942-3.666a6.688 6.688 0 00-2.584-2.54 8.02 8.02 0 00-7.429 0 6.662 6.662 0 00-2.584 2.54 7.591 7.591 0 00-.946 3.666c0 1.28.325 2.54.946 3.666a6.629 6.629 0 002.584 2.54 7.99 7.99 0 003.715.913 7.99 7.99 0 003.714-.914zm29.809-16.354v20.283h-3.156l-11.379-13.735v13.735h-3.803V7.665h3.153L121.265 21.4V7.665h3.802zm24.708 19.805a2.297 2.297 0 01-.709-1.724c0-.63.255-1.235.708-1.68a2.442 2.442 0 011.71-.696c.641 0 1.256.25 1.71.696.454.445.708 1.05.708 1.68.004.471-.135.933-.398 1.327-.264.394-.64.702-1.081.886a2.47 2.47 0 01-1.4.15 2.444 2.444 0 01-1.248-.64zm22.436-4.216h-10.319l-2.034 4.694h-3.943L165.2 7.665h3.777l9.315 20.283h-4.017l-2.064-4.694zm-1.266-2.957l-3.892-8.863-3.865 8.863h7.757zm23.762-2.721h3.629v8.083a11.64 11.64 0 01-3.718 1.912 14.52 14.52 0 01-4.367.653 11.926 11.926 0 01-5.69-1.346 10.137 10.137 0 01-3.98-3.722 10.692 10.692 0 01-1.444-5.36c0-1.88.498-3.727 1.444-5.36a10.095 10.095 0 013.995-3.723 12.07 12.07 0 015.734-1.35 12.782 12.782 0 014.74.853 9.303 9.303 0 013.567 2.464l-2.433 2.307a7.769 7.769 0 00-2.602-1.739 7.88 7.88 0 00-3.091-.58 8.158 8.158 0 00-3.877.9 6.616 6.616 0 00-2.655 2.518 7.165 7.165 0 00-.956 3.708 7.045 7.045 0 00.971 3.664 6.81 6.81 0 002.655 2.54 7.862 7.862 0 003.847.928 8.403 8.403 0 004.246-1.045l-.015-6.305zm46.763-9.911v20.283h-3.156l-11.379-13.735v13.735h-3.807V7.665h3.157L237.668 21.4V7.665h3.802zm9.448 19.224a10.054 10.054 0 01-3.95-3.723 10.733 10.733 0 01-1.437-5.36c0-1.878.495-3.725 1.437-5.36a10.145 10.145 0 013.965-3.722 11.772 11.772 0 015.645-1.35 11.958 11.958 0 014.63.871 9.439 9.439 0 013.541 2.522l-2.478 2.289a7.222 7.222 0 00-2.493-1.78 7.336 7.336 0 00-3.022-.596 7.862 7.862 0 00-3.803.91 6.682 6.682 0 00-2.625 2.54 7.677 7.677 0 00-.942 3.68c0 1.284.324 2.549.942 3.68a6.637 6.637 0 002.625 2.54 7.834 7.834 0 003.803.914 7.301 7.301 0 003.027-.606 7.183 7.183 0 002.488-1.8l2.478 2.32a9.41 9.41 0 01-3.556 2.52 12.05 12.05 0 01-4.626.846 11.775 11.775 0 01-5.649-1.335zm26.14-6.099v7.158h-3.832v-7.1l-8.123-13.183h4.102l6.044 9.882 6.103-9.882h3.784l-8.078 13.125zM60.464 7.661H44.987v3.157h15.477V7.66zm-2.991 8.344H41.996v3.157h15.477v-3.157zm2.991 8.783H44.987v3.156h15.477v-3.156zm70.145-.218v3.157h15.481V24.57h-15.481zm15.477-17.126h-15.477V10.6h15.477V7.444zm-2.99 8.34h-15.477v3.156h15.477v-3.156z" fill="#07275C"/><path d="M146.086 24.567h-15.477v3.156h15.477v-3.156zm57.179.225v3.156h15.477v-3.156h-15.477zm15.474-17.127h-15.478v3.156h15.478V7.665zm-2.987 8.34h-15.477v3.157h15.477v-3.157z" fill="#07275C"/><path d="M218.739 24.788h-15.478v3.156h15.478v-3.156z" fill="#07275C"/><path d="M17.858 36c9.863 0 17.858-8.059 17.858-18S27.72 0 17.858 0 0 8.059 0 18s7.995 18 17.858 18z" fill="url(#paint0_linear)"/><path d="M26.876 7.84a2.269 2.269 0 000 3.165H11.76a2.493 2.493 0 010-3.165h15.116zm0 17.16a2.26 2.26 0 000 3.16H11.76a2.488 2.488 0 010-3.16h15.116zM8.274 16.198a2.269 2.269 0 010 3.165h15.12a2.493 2.493 0 000-3.165H8.274z" fill="#07275C"/><defs><linearGradient id="paint0_linear" x1="35.716" y1="0" x2="-3.557" y2="4.817" gradientUnits="userSpaceOnUse"><stop stop-color="#FFE600"/><stop offset="1" stop-color="#FA940B"/></linearGradient></defs></svg>