<svg width="62" height="60" viewBox="0 0 62 60" fill="none" xmlns="http://www.w3.org/2000/svg">
<g clip-path="url(#clip0)">
<path d="M30.9518 0C20.8958 0 12.7148 7.91702 12.7148 17.6486V42.3514C12.7148 52.083 20.8958 60 30.9518 60C41.0077 60 49.1887 52.083 49.1887 42.3514V17.6486C49.1887 7.91702 41.0077 0 30.9518 0ZM45.4688 42.3514C45.4688 50.0977 38.9562 56.4001 30.9518 56.4001C22.9473 56.4001 16.4347 50.0977 16.4347 42.3514V17.6486C16.4347 9.90234 22.9473 3.59985 30.9518 3.59985C38.9562 3.59985 45.4688 9.90234 45.4688 17.6486V42.3514Z" fill="#E9C14F"/>
<path d="M30.9522 11.9357C29.9248 11.9357 29.0923 12.7414 29.0923 13.7357V22.0203C29.0923 23.0141 29.9248 23.8202 30.9522 23.8202C31.9791 23.8202 32.8121 23.0141 32.8121 22.0203V13.7357C32.8121 12.7414 31.9796 11.9357 30.9522 11.9357Z" fill="#E9C14F"/>
</g>
<defs>
<clipPath id="clip0">
<rect width="62" height="60" fill="white"/>
</clipPath>
</defs>
</svg>
