<svg width="62" height="60" fill="none" xmlns="http://www.w3.org/2000/svg"><g clip-path="url(#clip0)" fill="#E9C14F"><path d="M30.952 0C20.896 0 12.715 7.917 12.715 17.649V42.35c0 9.732 8.18 17.649 18.237 17.649 10.056 0 18.237-7.917 18.237-17.649v-24.7C49.189 7.917 41.008 0 30.952 0zm14.517 42.351c0 7.747-6.513 14.05-14.517 14.05-8.005 0-14.517-6.303-14.517-14.05V17.65c0-7.747 6.512-14.05 14.517-14.05 8.004 0 14.517 6.303 14.517 14.05v24.7z"/><path d="M30.952 11.936c-1.027 0-1.86.805-1.86 1.8v8.284c0 .994.833 1.8 1.86 1.8 1.027 0 1.86-.806 1.86-1.8v-8.284c0-.995-.832-1.8-1.86-1.8z"/></g><defs><clipPath id="clip0"><path fill="#fff" d="M0 0h62v60H0z"/></clipPath></defs></svg>